<svg width="532" height="68" viewBox="0 0 532 68" fill="none" xmlns="http://www.w3.org/2000/svg">
<path d="M42.5938 0.421875C45.5625 0.421875 48.3281 0.578125 50.8906 0.890625C53.4531 1.17188 55.9062 1.59375 58.25 2.15625C60.5938 2.6875 62.875 3.34375 65.0938 4.125C67.3125 4.875 69.5469 5.71875 71.7969 6.65625V13.7812C70.0156 12.6562 68.1094 11.5937 66.0781 10.5938C64.0781 9.59375 61.9062 8.71875 59.5625 7.96875C57.25 7.21875 54.75 6.625 52.0625 6.1875C49.4062 5.75 46.5469 5.53125 43.4844 5.53125C37.2344 5.53125 31.7812 6.1875 27.125 7.5C22.4688 8.8125 18.5938 10.6875 15.5 13.125C12.4062 15.5625 10.0781 18.5312 8.51562 22.0312C6.98438 25.5312 6.21875 29.4688 6.21875 33.8438C6.21875 37.9375 6.96875 41.7188 8.46875 45.1875C10 48.625 12.2969 51.5938 15.3594 54.0938C18.4531 56.5938 22.3125 58.5469 26.9375 59.9531C31.5625 61.3594 36.9844 62.0625 43.2031 62.0625C45.6406 62.0625 48.0469 61.9688 50.4219 61.7812C52.8281 61.5938 55.0938 61.3594 57.2188 61.0781C59.3438 60.7656 61.2812 60.4375 63.0312 60.0938C64.7812 59.7188 66.2656 59.3438 67.4844 58.9688V39.4219H41.2812V33.9375H73.3438V62.25C71.0312 63.0625 68.6875 63.7812 66.3125 64.4062C63.9688 65.0312 61.5312 65.5625 59 66C56.5 66.4062 53.8906 66.7188 51.1719 66.9375C48.4844 67.1562 45.6562 67.2656 42.6875 67.2656C36.625 67.2656 31 66.5938 25.8125 65.25C20.625 63.875 16.125 61.8125 12.3125 59.0625C8.53125 56.2812 5.5625 52.7969 3.40625 48.6094C1.25 44.4219 0.171875 39.5 0.171875 33.8438C0.171875 30.0625 0.671875 26.625 1.67188 23.5312C2.67188 20.4062 4.07812 17.6094 5.89062 15.1406C7.73438 12.6406 9.9375 10.4687 12.5 8.625C15.0938 6.78125 17.9531 5.26562 21.0781 4.07812C24.2344 2.85938 27.625 1.95313 31.25 1.35938C34.875 0.734375 38.6562 0.421875 42.5938 0.421875ZM97.9062 43.7344C97.9062 46.6406 98.1406 49.1406 98.6094 51.2344C99.0781 53.3281 100.062 55.0469 101.562 56.3906C103.062 57.7344 105.219 58.7344 108.031 59.3906C110.875 60.0156 114.641 60.3281 119.328 60.3281H148.438V66H118.156C113 66 108.734 65.5938 105.359 64.7812C102.016 63.9375 99.3438 62.6562 97.3438 60.9375C95.375 59.1875 94 56.9844 93.2188 54.3281C92.4375 51.6719 92.0469 48.5156 92.0469 44.8594V1.59375H97.9062V43.7344ZM160.203 66V1.59375H166.062V66H160.203ZM193.625 1.59375V11.4844C195 10.2969 196.531 9.03125 198.219 7.6875C199.906 6.34375 201.766 5.10938 203.797 3.98438C205.828 2.85938 208.031 1.92188 210.406 1.17188C212.781 0.421875 215.328 0.046875 218.047 0.046875C222.391 0.046875 226.234 1.03125 229.578 3C232.922 4.9375 235.625 7.95313 237.688 12.0469C239.688 10.2031 241.75 8.54687 243.875 7.07812C246 5.57812 248.172 4.3125 250.391 3.28125C252.641 2.25 254.953 1.45312 257.328 0.890625C259.703 0.328125 262.156 0.046875 264.688 0.046875C267.906 0.046875 270.828 0.59375 273.453 1.6875C276.109 2.78125 278.359 4.28125 280.203 6.1875C282.047 8.09375 283.469 10.3438 284.469 12.9375C285.5 15.5 286.016 18.25 286.016 21.1875V66H280.156V22.6875C280.156 20 279.828 17.6094 279.172 15.5156C278.547 13.3906 277.547 11.5937 276.172 10.125C274.828 8.65625 273.094 7.54688 270.969 6.79688C268.875 6.01562 266.359 5.625 263.422 5.625C261.078 5.625 258.75 5.96875 256.438 6.65625C254.156 7.3125 251.969 8.20312 249.875 9.32812C247.781 10.4219 245.828 11.6719 244.016 13.0781C242.203 14.4844 240.609 15.9375 239.234 17.4375C239.391 18.3125 239.469 19.0625 239.469 19.6875C239.5 20.3125 239.516 21.0625 239.516 21.9375V66H233.656V22.6875C233.656 19.5 233.234 16.8281 232.391 14.6719C231.547 12.4844 230.375 10.7188 228.875 9.375C227.375 8.03125 225.594 7.07812 223.531 6.51562C221.5 5.92187 219.281 5.625 216.875 5.625C214.594 5.625 212.328 6.01562 210.078 6.79688C207.859 7.57813 205.734 8.59375 203.703 9.84375C201.672 11.0938 199.797 12.5 198.078 14.0625C196.359 15.5938 194.875 17.125 193.625 18.6562V66H187.766V1.59375H193.625ZM370.203 21.375C370.203 24.5938 369.672 27.4375 368.609 29.9062C367.578 32.375 365.938 34.4531 363.688 36.1406C361.438 37.8281 358.531 39.1094 354.969 39.9844C351.438 40.8281 347.172 41.25 342.172 41.25H313.25V66H307.391V1.59375H342.172C347.172 1.59375 351.438 2.03125 354.969 2.90625C358.531 3.75 361.438 5 363.688 6.65625C365.938 8.3125 367.578 10.375 368.609 12.8438C369.672 15.3125 370.203 18.1562 370.203 21.375ZM364.156 21.375C364.156 18.3125 363.641 15.8438 362.609 13.9688C361.609 12.0938 360.047 10.6562 357.922 9.65625C355.828 8.625 353.156 7.9375 349.906 7.59375C346.688 7.25 342.859 7.07812 338.422 7.07812H313.25V35.7656H338.422C340.141 35.7656 341.969 35.7812 343.906 35.8125C345.875 35.8125 347.812 35.7188 349.719 35.5312C351.625 35.3125 353.438 34.9531 355.156 34.4531C356.906 33.9219 358.438 33.125 359.75 32.0625C361.094 31 362.156 29.6094 362.938 27.8906C363.75 26.1719 364.156 24 364.156 21.375ZM438.078 11.1094C436.859 10.5156 435.453 9.89062 433.859 9.23438C432.266 8.54687 430.438 7.9375 428.375 7.40625C426.344 6.875 424.047 6.4375 421.484 6.09375C418.922 5.71875 416.078 5.53125 412.953 5.53125C409.172 5.53125 405.797 5.75 402.828 6.1875C399.891 6.625 397.391 7.3125 395.328 8.25C393.297 9.15625 391.734 10.3125 390.641 11.7188C389.578 13.125 389.047 14.7969 389.047 16.7344C389.047 18.3594 389.547 19.7812 390.547 21C391.578 22.2188 392.953 23.2969 394.672 24.2344C396.422 25.1719 398.453 26.0312 400.766 26.8125C403.109 27.5625 405.578 28.2812 408.172 28.9688C410.797 29.625 413.484 30.2969 416.234 30.9844C419.016 31.6719 421.703 32.4219 424.297 33.2344C426.922 34.0156 429.391 34.9062 431.703 35.9062C434.047 36.875 436.078 38.0156 437.797 39.3281C439.547 40.6406 440.922 42.1406 441.922 43.8281C442.953 45.5156 443.469 47.4688 443.469 49.6875C443.469 52.0938 443.016 54.2031 442.109 56.0156C441.203 57.7969 439.969 59.3438 438.406 60.6562C436.875 61.9375 435.062 63.0156 432.969 63.8906C430.906 64.7344 428.688 65.4062 426.312 65.9062C423.969 66.4062 421.531 66.75 419 66.9375C416.5 67.1562 414.031 67.2656 411.594 67.2656C406 67.2656 400.922 66.8594 396.359 66.0469C391.828 65.2344 387.5 64.125 383.375 62.7188V55.5469C387.625 58.0781 392.109 59.8125 396.828 60.75C401.578 61.6875 406.562 62.1562 411.781 62.1562C415.469 62.1562 418.875 61.9375 422 61.5C425.125 61.0625 427.828 60.375 430.109 59.4375C432.391 58.4688 434.156 57.2188 435.406 55.6875C436.688 54.1562 437.328 52.2812 437.328 50.0625C437.328 48.2812 436.812 46.7188 435.781 45.375C434.781 44.0312 433.406 42.8594 431.656 41.8594C429.938 40.8281 427.906 39.9219 425.562 39.1406C423.25 38.3594 420.797 37.6406 418.203 36.9844C415.609 36.2969 412.922 35.6406 410.141 35.0156C407.391 34.3594 404.719 33.6562 402.125 32.9062C399.531 32.1562 397.062 31.3125 394.719 30.375C392.406 29.4375 390.375 28.3438 388.625 27.0938C386.906 25.8125 385.531 24.3438 384.5 22.6875C383.5 21.0312 383 19.1094 383 16.9219C383 14.7656 383.406 12.8594 384.219 11.2031C385.031 9.51562 386.141 8.0625 387.547 6.84375C388.984 5.625 390.656 4.60937 392.562 3.79688C394.469 2.95312 396.5 2.29688 398.656 1.82812C400.844 1.32812 403.109 0.96875 405.453 0.75C407.797 0.53125 410.109 0.421875 412.391 0.421875C414.891 0.421875 417.25 0.53125 419.469 0.75C421.719 0.96875 423.875 1.26562 425.938 1.64062C428.031 1.98437 430.062 2.39062 432.031 2.85938C434.031 3.32812 436.047 3.82813 438.078 4.35938V11.1094ZM526.531 62.625C523.906 63.4375 521.469 64.1406 519.219 64.7344C516.969 65.2969 514.75 65.75 512.562 66.0938C510.375 66.4688 508.141 66.7344 505.859 66.8906C503.609 67.0781 501.125 67.1719 498.406 67.1719C492.094 67.1719 486.391 66.4062 481.297 64.875C476.203 63.3438 471.859 61.1562 468.266 58.3125C464.703 55.4375 461.953 51.9688 460.016 47.9062C458.078 43.8438 457.109 39.2812 457.109 34.2188C457.109 29.3125 458.031 24.8125 459.875 20.7188C461.75 16.625 464.359 13.1094 467.703 10.1719C471.047 7.23437 475.047 4.95313 479.703 3.32812C484.359 1.70312 489.5 0.890625 495.125 0.890625C500.969 0.890625 506.172 1.67188 510.734 3.23438C515.297 4.79687 519.141 7.03125 522.266 9.9375C525.391 12.8438 527.766 16.375 529.391 20.5312C531.016 24.6562 531.828 29.3125 531.828 34.5V35.9531H463.156C463.5 39.9531 464.5 43.5625 466.156 46.7812C467.812 50 470.156 52.7344 473.188 54.9844C476.25 57.2344 480 58.9688 484.438 60.1875C488.906 61.375 494.109 61.9688 500.047 61.9688C502.578 61.9688 505.141 61.7969 507.734 61.4531C510.328 61.1094 512.812 60.6562 515.188 60.0938C517.562 59.5 519.734 58.8438 521.703 58.125C523.672 57.375 525.281 56.6094 526.531 55.8281V62.625ZM526.062 30.8438C525.844 27.5625 525.109 24.4375 523.859 21.4688C522.609 18.4688 520.734 15.8281 518.234 13.5469C515.766 11.2656 512.609 9.45313 508.766 8.10938C504.953 6.76562 500.375 6.09375 495.031 6.09375C490 6.09375 485.594 6.76562 481.812 8.10938C478.031 9.45313 474.828 11.2656 472.203 13.5469C469.578 15.7969 467.516 18.4219 466.016 21.4219C464.516 24.3906 463.562 27.5312 463.156 30.8438H526.062Z" fill="white"/>
</svg>
